<?xml version="1.0" encoding="UTF-8" standalone="no"?>
<!-- Created with Inkscape (http://www.inkscape.org/) -->

<svg
   xmlns:dc="http://purl.org/dc/elements/1.1/"
   xmlns:cc="http://creativecommons.org/ns#"
   xmlns:rdf="http://www.w3.org/1999/02/22-rdf-syntax-ns#"
   xmlns:svg="http://www.w3.org/2000/svg"
   xmlns="http://www.w3.org/2000/svg"
   xmlns:sodipodi="http://sodipodi.sourceforge.net/DTD/sodipodi-0.dtd"
   xmlns:inkscape="http://www.inkscape.org/namespaces/inkscape"
   width="141.1111mm"
   height="141.1111mm"
   viewBox="0 0 141.1111 141.1111"
   version="1.1"
   id="svg8"
   inkscape:version="0.92.4 5da689c313, 2019-01-14"
   sodipodi:docname="placeholder.svg">
  <defs
     id="defs2" />
  <sodipodi:namedview
     id="base"
     pagecolor="#ffffff"
     bordercolor="#666666"
     borderopacity="1.0"
     inkscape:pageopacity="0.0"
     inkscape:pageshadow="2"
     inkscape:zoom="1.39825"
     inkscape:cx="172.09921"
     inkscape:cy="268.57143"
     inkscape:document-units="mm"
     inkscape:current-layer="layer1"
     showgrid="false"
     fit-margin-top="0"
     fit-margin-left="0"
     fit-margin-right="0"
     fit-margin-bottom="0"
     inkscape:window-width="1920"
     inkscape:window-height="1006"
     inkscape:window-x="0"
     inkscape:window-y="0"
     inkscape:window-maximized="1" />
  <metadata
     id="metadata5">
    <rdf:RDF>
      <cc:Work
         rdf:about="">
        <dc:format>image/svg+xml</dc:format>
        <dc:type
           rdf:resource="http://purl.org/dc/dcmitype/StillImage" />
        <dc:title></dc:title>
      </cc:Work>
    </rdf:RDF>
  </metadata>
  <g
     inkscape:label="Layer 1"
     inkscape:groupmode="layer"
     id="layer1"
     transform="translate(-129.01588,-147.82541)">
    <path
       style="fill:#e6e6e6;stroke-width:0.35277775"
       d="m 192.20828,271.62554 c -17.26232,-2.35077 -32.90904,-13.57351 -40.67429,-29.17396 -7.64672,-15.36234 -7.61002,-32.97271 0.1007,-48.3242 4.99438,-9.94344 13.74961,-18.69867 23.69305,-23.69305 29.45183,-14.79302 64.82495,-0.14962 75.23126,31.14346 3.21605,9.67107 3.62167,19.56782 1.20892,29.49655 -6.50943,26.78696 -32.1983,44.27725 -59.55964,40.5512 z m 13.89282,-3.49025 c 12.69899,-1.70081 24.50459,-8.26537 32.31693,-17.97001 8.57584,-10.65309 12.61099,-24.32765 11.04659,-37.43539 -2.61316,-21.89496 -18.66168,-39.30002 -40.22864,-43.62907 -5.54823,-1.11367 -14.37467,-1.11392 -19.48187,-5.4e-4 -15.3551,3.34745 -27.35364,12.38817 -34.76311,26.19349 -6.06817,11.30621 -7.30379,26.31105 -3.17886,38.60279 4.85871,14.47831 15.99039,26.19747 29.83353,31.40802 7.82684,2.94601 16.2848,3.92502 24.45543,2.83071 z m -10.75972,-14.58476 c -1.61431,-0.34486 -2.09458,-1.6413 -0.97014,-2.61881 0.49885,-0.43367 1.53157,-0.51994 5.37986,-0.44941 5.65717,0.10367 5.16418,0.0357 5.43831,0.75006 0.41015,1.06883 -0.15314,1.86513 -1.59379,2.25306 -1.31901,0.35517 -6.69781,0.39759 -8.25424,0.0651 z m -11.3354,-1.49897 c -1.46707,-0.4492 -3.56072,-2.81559 -3.84856,-4.34991 -0.19816,-1.05629 0.1021,-8.57092 1.11949,-28.01741 l 0.22677,-4.33453 -2.69435,-2.7687 -2.69435,-2.7687 v -8.62889 c 0,-7.91151 0.0536,-8.67743 0.64514,-9.21274 0.83851,-0.75884 1.57434,-0.73922 2.29879,0.0613 0.5067,0.55989 0.58385,1.6893 0.58385,8.54706 v 7.90191 l 2.72066,2.73672 2.72067,2.73672 -0.8211,16.65706 -0.8211,16.65706 0.94233,0.81055 c 1.19006,1.02365 2.02623,1.02432 3.2141,0.002 l 0.93936,-0.808 -0.74557,-14.80242 c -0.41007,-8.14133 -0.74455,-15.67951 -0.7433,-16.75152 l 0.002,-1.94911 2.63951,-2.62189 2.63952,-2.6219 0.0945,-8.11571 0.0945,-8.11571 0.99153,-0.54245 c 0.93899,-0.51371 1.02778,-0.49832 1.67569,0.29037 0.63532,0.77338 0.68417,1.44345 0.68417,9.3856 v 8.55277 l -2.64583,2.64583 c -2.20309,2.20308 -2.64585,2.83698 -2.64585,3.7881 0,0.62825 0.2547,5.85036 0.566,11.60469 0.31129,5.75432 0.5891,12.69504 0.61736,15.42382 0.0511,4.93129 0.0453,4.96935 -0.94226,6.26906 -0.5465,0.71921 -1.35056,1.54152 -1.78681,1.82736 -1.03211,0.67627 -3.62628,0.93998 -5.02717,0.51105 z m 27.31318,0.0354 c -1.57911,-0.50622 -2.97725,-1.69406 -3.64142,-3.09369 -0.65101,-1.3719 -0.59532,-4.36313 0.50115,-26.91478 l 0.23156,-4.7625 -1.82217,-1.67631 c -2.15691,-1.98425 -2.837,-3.50189 -3.15833,-7.04786 -0.38913,-4.29417 1.39407,-11.70328 3.40037,-14.12843 1.65279,-1.99782 3.58158,-2.87408 6.32633,-2.87408 5.2025,0 7.65971,2.9994 9.36932,11.43671 0.98388,4.85564 0.21791,9.7115 -1.86459,11.82052 -0.38317,0.38806 -1.15783,1.10878 -1.72144,1.60161 l -1.02477,0.89605 0.2254,4.74839 c 1.11499,23.48937 1.1514,25.51743 0.48336,26.92521 -1.16704,2.45936 -4.64657,3.92131 -7.30477,3.06916 z m 3.4658,-4.02493 0.9621,-0.82756 -0.75528,-15.84118 -0.75528,-15.84119 0.86184,-0.70556 c 0.47401,-0.38805 1.34609,-1.07795 1.93795,-1.53311 1.78133,-1.36991 2.25121,-2.66646 2.25702,-6.228 0.006,-3.60899 -1.04768,-7.95196 -2.45664,-10.12657 -1.67278,-2.58179 -5.68311,-2.61038 -7.4008,-0.0528 -1.26501,1.88357 -2.45623,6.96697 -2.42671,10.35573 0.0294,3.37134 0.53415,4.71833 2.26786,6.05161 0.59186,0.45516 1.46476,1.14506 1.93979,1.53311 l 0.86369,0.70556 -0.73161,15.44708 c -0.40239,8.49589 -0.63996,15.81228 -0.52793,16.25864 0.20656,0.82297 1.31516,1.56439 2.40422,1.6079 0.32872,0.0131 1.03063,-0.34853 1.55978,-0.80369 z m -41.46124,-4.91973 c -4.11149,-4.38663 -7.49252,-10.99175 -8.88608,-17.35965 -0.75265,-3.43926 -0.58732,-11.74623 0.30542,-15.34583 1.22315,-4.93186 3.49844,-9.89585 5.93849,-12.95596 0.67906,-0.85162 0.88927,-0.92406 1.77883,-0.61298 1.57095,0.54936 1.47879,1.73693 -0.36715,4.73095 -7.43907,12.06581 -5.97641,28.16252 3.53184,38.8683 1.64643,1.85379 1.88873,2.73992 0.99388,3.63477 -0.90369,0.90368 -1.79101,0.64529 -3.29523,-0.9596 z m 48.84877,0.37713 c -0.80615,-1.15093 -0.70737,-1.48371 1.01646,-3.42465 4.15098,-4.67379 6.68027,-9.95793 7.80309,-16.30205 1.46432,-8.27366 -0.67101,-17.48901 -5.67849,-24.50636 -1.67837,-2.35202 -1.906,-3.28339 -1.0192,-4.17018 1.04291,-1.04292 1.85325,-0.64347 3.64518,1.79683 5.24029,7.13637 7.79826,16.63175 6.79817,25.2353 -0.91766,7.89442 -4.31019,15.4719 -9.16892,20.47947 -1.80159,1.85679 -2.57758,2.06051 -3.39629,0.89164 z m -40.182,-34.78608 c -0.50606,-0.55919 -0.58385,-1.67992 -0.58385,-8.41199 0,-7.07638 0.0574,-7.81876 0.64514,-8.3507 0.83851,-0.75884 1.57434,-0.73922 2.2988,0.0613 0.50606,0.55919 0.58384,1.67991 0.58384,8.41199 0,7.07637 -0.0574,7.81875 -0.64514,8.35069 -0.83851,0.75885 -1.57433,0.73923 -2.29879,-0.0613 z m 5.64444,0 c -0.50606,-0.55919 -0.58384,-1.67992 -0.58384,-8.41199 0,-7.07638 0.0574,-7.81876 0.64514,-8.3507 0.83851,-0.75884 1.57434,-0.73922 2.29879,0.0613 0.50606,0.55919 0.58385,1.67991 0.58385,8.41199 0,7.07637 -0.0574,7.81875 -0.64514,8.35069 -0.83851,0.75885 -1.57434,0.73923 -2.2988,-0.0613 z m -1.49823,-21.40347 c -0.97448,-1.48725 -0.0712,-2.36118 3.43774,-3.32615 4.45228,-1.22438 9.52452,-1.65282 13.82543,-1.1678 5.53523,0.62422 6.88252,1.37895 5.86283,3.28426 -0.38383,0.71718 -0.54815,0.74122 -3.10635,0.4543 -1.4856,-0.16662 -4.76484,-0.28487 -7.2872,-0.26279 -3.7409,0.0328 -5.23477,0.21155 -8.10581,0.97014 -1.93582,0.51149 -3.63873,0.92998 -3.78422,0.92998 -0.1455,0 -0.52459,-0.39687 -0.84242,-0.88194 z"
       id="path876"
       inkscape:connector-curvature="0" />
  </g>
</svg>
